<svg xmlns="http://www.w3.org/2000/svg" xmlns:xlink="http://www.w3.org/1999/xlink" width="133" zoomAndPan="magnify" viewBox="0 0 99.75 30.000001" height="40" preserveAspectRatio="xMidYMid meet" version="1.0"><path fill="#0a0a0a" d="M 16.167969 10.460938 C 15.101562 9.757812 13.9375 9.40625 12.671875 9.40625 C 10.9375 9.40625 9.453125 10.015625 8.222656 11.234375 C 6.992188 12.453125 6.375 13.925781 6.375 15.648438 C 6.375 17.371094 6.992188 18.839844 8.222656 20.058594 C 9.453125 21.28125 10.9375 21.890625 12.671875 21.890625 C 14.410156 21.890625 15.890625 21.28125 17.113281 20.058594 C 18.335938 18.839844 18.949219 17.371094 18.949219 15.648438 L 18.949219 5.941406 L 16.167969 7.328125 Z M 15.140625 18.09375 C 14.457031 18.769531 13.632812 19.109375 12.671875 19.109375 C 11.699219 19.109375 10.871094 18.769531 10.1875 18.09375 C 9.503906 17.414062 9.160156 16.597656 9.160156 15.648438 C 9.160156 14.695312 9.503906 13.878906 10.1875 13.203125 C 10.871094 12.523438 11.703125 12.1875 12.671875 12.1875 C 13.632812 12.1875 14.457031 12.523438 15.140625 13.203125 C 15.824219 13.878906 16.164062 14.695312 16.164062 15.648438 C 16.167969 16.597656 15.824219 17.414062 15.140625 18.09375 Z M 15.140625 18.09375 " fill-opacity="1" fill-rule="nonzero"/><path fill="#0a0a0a" d="M 27.117188 9.40625 C 25.382812 9.40625 23.898438 10.015625 22.667969 11.234375 C 21.4375 12.453125 20.820312 13.925781 20.820312 15.648438 C 20.820312 17.371094 21.4375 18.839844 22.667969 20.058594 C 23.898438 21.28125 25.382812 21.890625 27.117188 21.890625 C 28.855469 21.890625 30.339844 21.28125 31.570312 20.058594 C 32.800781 18.839844 33.417969 17.371094 33.417969 15.648438 C 33.417969 13.925781 32.800781 12.453125 31.570312 11.234375 C 30.339844 10.015625 28.855469 9.40625 27.117188 9.40625 Z M 29.585938 18.09375 C 28.902344 18.769531 28.078125 19.109375 27.117188 19.109375 C 26.160156 19.109375 25.335938 18.769531 24.652344 18.09375 C 23.96875 17.414062 23.628906 16.597656 23.628906 15.648438 C 23.628906 14.679688 23.96875 13.859375 24.652344 13.183594 C 25.335938 12.503906 26.160156 12.167969 27.117188 12.167969 C 28.078125 12.167969 28.902344 12.503906 29.585938 13.183594 C 30.269531 13.859375 30.609375 14.683594 30.609375 15.648438 C 30.613281 16.597656 30.269531 17.414062 29.585938 18.09375 Z M 29.585938 18.09375 " fill-opacity="1" fill-rule="nonzero"/><path fill="#0a0a0a" d="M 43.6875 16.332031 C 43.6875 17.085938 43.414062 17.738281 42.867188 18.289062 C 42.320312 18.835938 41.65625 19.109375 40.882812 19.109375 C 40.105469 19.109375 39.445312 18.835938 38.902344 18.289062 C 38.355469 17.742188 38.082031 17.089844 38.082031 16.332031 L 38.082031 9.402344 L 35.296875 9.402344 L 35.296875 16.332031 C 35.296875 17.867188 35.84375 19.183594 36.9375 20.261719 C 38.027344 21.34375 39.34375 21.886719 40.882812 21.886719 C 42.433594 21.886719 43.757812 21.34375 44.851562 20.261719 C 45.941406 19.183594 46.488281 17.867188 46.488281 16.332031 L 46.488281 9.402344 L 43.6875 9.402344 Z M 43.6875 16.332031 " fill-opacity="1" fill-rule="nonzero"/><path fill="#0a0a0a" d="M 54.835938 19.109375 L 54.835938 21.886719 C 53.097656 21.886719 51.613281 21.277344 50.382812 20.058594 C 49.152344 18.839844 48.539062 17.367188 48.539062 15.644531 L 48.539062 7.355469 L 51.339844 5.957031 L 51.339844 15.648438 C 51.339844 16.601562 51.683594 17.414062 52.367188 18.09375 C 53.050781 18.769531 53.871094 19.109375 54.835938 19.109375 Z M 54.835938 19.109375 " fill-opacity="1" fill-rule="nonzero"/><path fill="#0a0a0a" d="M 91.683594 11.234375 C 90.453125 10.015625 88.96875 9.40625 87.234375 9.40625 C 85.496094 9.40625 84.011719 10.015625 82.78125 11.234375 C 81.550781 12.453125 80.9375 13.925781 80.9375 15.648438 C 80.9375 17.371094 81.550781 18.839844 82.78125 20.058594 C 84.011719 21.28125 85.496094 21.890625 87.234375 21.890625 C 88.390625 21.890625 89.457031 21.605469 90.429688 21.027344 L 93.53125 22.574219 L 93.53125 15.648438 C 93.53125 13.921875 92.914062 12.453125 91.683594 11.234375 Z M 89.710938 18.09375 C 89.03125 18.769531 88.207031 19.109375 87.234375 19.109375 C 86.261719 19.109375 85.433594 18.769531 84.757812 18.09375 C 84.082031 17.414062 83.742188 16.597656 83.742188 15.648438 C 83.742188 14.695312 84.082031 13.878906 84.757812 13.203125 C 85.4375 12.523438 86.261719 12.1875 87.234375 12.1875 C 88.210938 12.1875 89.035156 12.523438 89.710938 13.203125 C 90.390625 13.878906 90.726562 14.695312 90.726562 15.648438 C 90.726562 16.597656 90.386719 17.414062 89.710938 18.09375 Z M 89.710938 18.09375 " fill-opacity="1" fill-rule="nonzero"/><path fill="#0a0a0a" d="M 64.617188 13.574219 L 64.617188 17.109375 C 64.617188 18.269531 65.566406 19.210938 66.738281 19.210938 L 67.972656 19.210938 L 67.972656 21.882812 L 66.375 21.882812 C 63.921875 21.882812 61.933594 19.914062 61.933594 17.480469 L 61.933594 8.839844 L 64.617188 7.5 L 64.617188 10.933594 L 67.96875 10.933594 L 67.96875 13.574219 Z M 64.617188 13.574219 " fill-opacity="1" fill-rule="nonzero"/><path fill="#0a0a0a" d="M 59.753906 10.273438 L 59.753906 21.886719 L 56.945312 21.886719 L 56.945312 11.09375 Z M 59.753906 10.273438 " fill-opacity="1" fill-rule="nonzero"/><path fill="#0a0a0a" d="M 59.753906 6.023438 L 59.753906 8.964844 L 56.945312 9.785156 L 56.945312 7.414062 L 59.734375 6.023438 Z M 59.753906 6.023438 " fill-opacity="1" fill-rule="nonzero"/><path fill="#0a0a0a" d="M 75.785156 14.34375 L 73.484375 14.34375 C 73.164062 14.34375 72.890625 14.230469 72.660156 14.003906 C 72.429688 13.773438 72.320312 13.507812 72.320312 13.183594 C 72.320312 12.863281 72.429688 12.59375 72.660156 12.367188 C 72.890625 12.136719 73.164062 12.027344 73.484375 12.027344 L 78.738281 12.027344 L 78.738281 9.40625 L 73.464844 9.40625 C 72.417969 9.40625 71.515625 9.777344 70.78125 10.515625 C 70.046875 11.25 69.671875 12.148438 69.671875 13.183594 C 69.671875 14.207031 70.046875 15.097656 70.78125 15.832031 C 71.515625 16.570312 72.410156 16.941406 73.441406 16.941406 L 75.761719 16.941406 C 76.085938 16.941406 76.359375 17.054688 76.589844 17.28125 C 76.820312 17.511719 76.929688 17.777344 76.929688 18.101562 C 76.929688 18.421875 76.820312 18.691406 76.589844 18.917969 C 76.359375 19.148438 76.085938 19.257812 75.761719 19.257812 L 69.980469 19.257812 L 69.980469 21.878906 L 75.761719 21.878906 C 76.804688 21.878906 77.710938 21.507812 78.445312 20.769531 C 79.179688 20.035156 79.550781 19.136719 79.550781 18.101562 C 79.550781 17.082031 79.183594 16.191406 78.457031 15.453125 C 77.730469 14.714844 76.832031 14.34375 75.785156 14.34375 Z M 75.785156 14.34375 " fill-opacity="1" fill-rule="nonzero"/></svg>