<svg version="1.2" xmlns="http://www.w3.org/2000/svg" viewBox="0 0 89 31" width="89" height="31">
	<title>doulitsa-logo-white-svg</title>
	<style>
		.s0 { fill: #ffffff } 
	</style>
	<path fill-rule="evenodd" class="s0" d="m10.2 7.3l2.7-1.4v9.7q0 2.6-1.8 4.5-1.8 1.8-4.4 1.8-2.6 0-4.5-1.8-1.8-1.9-1.8-4.5 0-2.5 1.8-4.4 1.9-1.8 4.5-1.8 1.9 0 3.5 1.1zm0 8.3q0-1.4-1.1-2.5-1-1-2.4-1-1.5 0-2.5 1-1 1.1-1 2.5 0 1.4 1 2.4 1 1 2.5 1 1.4 0 2.4-1 1.1-1 1.1-2.4z"/>
	<path fill-rule="evenodd" class="s0" d="m25.6 11.2q1.8 1.9 1.8 4.4 0 2.6-1.8 4.5-1.9 1.8-4.5 1.8-2.6 0-4.4-1.8-1.9-1.9-1.9-4.5 0-2.5 1.9-4.4 1.8-1.8 4.4-1.8 2.6 0 4.5 1.8zm-1 4.4q0-1.4-1-2.4-1-1-2.5-1-1.4 0-2.4 1-1.1 1-1.1 2.4 0 1.5 1.1 2.5 1 1 2.4 1 1.5 0 2.5-1 1-1 1-2.5z"/>
	<path class="s0" d="m37.7 16.3q0 1.2-0.8 2-0.9 0.8-2 0.8-1.2 0-2-0.8-0.8-0.8-0.8-2v-6.9h-2.8v6.9q0 2.3 1.6 4 1.7 1.6 4 1.6 2.3 0 4-1.6 1.6-1.7 1.6-4v-6.9h-2.8z"/>
	<path class="s0" d="m48.8 19.1v2.8q-2.6 0-4.4-1.8-1.9-1.9-1.9-4.5v-8.2l2.8-1.4v9.6q0 1.5 1.1 2.5 1 1 2.4 1z"/>
	<path fill-rule="evenodd" class="s0" d="m87.5 15.6v7l-3.1-1.6q-1.4 0.9-3.2 0.9-2.6 0-4.4-1.8-1.9-1.9-1.9-4.5 0-2.5 1.9-4.4 1.8-1.8 4.4-1.8 2.6 0 4.5 1.8 1.8 1.9 1.8 4.4zm-2.8 0q0-1.4-1-2.4-1-1-2.5-1-1.4 0-2.4 1-1.1 1-1.1 2.4 0 1.5 1.1 2.5 1 1 2.4 1 1.5 0 2.5-1 1-1 1-2.5z"/>
	<path class="s0" d="m58.6 13.6v3.5c0 1.2 1 2.1 2.1 2.1h1.3v2.7h-1.6c-2.5 0-4.5-2-4.5-4.4v-8.7l2.7-1.3v3.4h3.4v2.7z"/>
	<path class="s0" d="m53.8 10.3v11.6h-2.9v-10.8z"/>
	<path class="s0" d="m53.8 6v3l-2.9 0.8v-2.4l2.8-1.4z"/>
	<path class="s0" d="m69.8 14.3h-2.3q-0.5 0-0.8-0.3-0.4-0.3-0.4-0.8 0-0.5 0.4-0.8 0.3-0.4 0.8-0.4h5.2v-2.6h-5.2q-1.6 0-2.7 1.1-1.1 1.1-1.1 2.7 0 1.5 1.1 2.6 1.1 1.1 2.6 1.1h2.4q0.4 0 0.8 0.4 0.3 0.3 0.3 0.8 0 0.5-0.3 0.8-0.4 0.4-0.8 0.4h-5.8v2.6h5.8q1.5 0 2.6-1.1 1.1-1.1 1.2-2.7-0.1-1.5-1.1-2.6-1.1-1.2-2.7-1.2z"/>
</svg>