<?xml version="1.0" standalone="no"?>
<!DOCTYPE svg PUBLIC "-//W3C//DTD SVG 20010904//EN"
 "http://www.w3.org/TR/2001/REC-SVG-20010904/DTD/svg10.dtd">
<svg version="1.0" xmlns="http://www.w3.org/2000/svg"
 width="133.000000pt" height="40.000000pt" viewBox="0 0 133.000000 40.000000"
 preserveAspectRatio="xMidYMid meet">

<g transform="translate(0.000000,40.000000) scale(0.100000,-0.100000)"
fill="#000000" stroke="none">
<path d="M721 300 c-17 -10 -7 -40 13 -40 7 0 16 6 19 14 8 19 -15 37 -32 26z"/>
<path d="M220 267 c0 -32 -1 -33 -35 -29 -39 5 -62 -9 -76 -47 -23 -59 41
-116 100 -91 37 15 51 53 51 136 0 57 -2 64 -20 64 -16 0 -20 -7 -20 -33z m-6
-73 c18 -46 -16 -84 -56 -62 -18 9 -25 58 -11 71 13 13 61 7 67 -9z"/>
<path d="M642 198 c3 -89 5 -103 21 -106 15 -3 17 7 17 102 0 100 -1 106 -20
106 -20 0 -21 -5 -18 -102z"/>
<path d="M790 206 c0 -69 2 -76 26 -95 15 -12 33 -21 40 -21 22 0 16 31 -6 37
-39 10 -39 83 0 83 11 0 20 7 20 15 0 9 -9 15 -25 15 -18 0 -25 5 -25 20 0 11
-7 20 -15 20 -12 0 -15 -15 -15 -74z"/>
<path d="M308 223 c-56 -65 4 -155 81 -123 75 31 53 140 -29 140 -23 0 -43 -7
-52 -17z m88 -38 c10 -40 -2 -57 -38 -53 -26 2 -34 8 -36 26 -7 51 62 76 74
27z"/>
<path d="M460 190 c0 -41 5 -56 26 -77 20 -20 31 -24 57 -19 46 9 60 28 65 90
4 52 3 56 -17 56 -19 0 -21 -6 -21 -50 0 -37 -4 -52 -18 -59 -33 -17 -52 5
-52 59 0 43 -3 50 -20 50 -17 0 -20 -7 -20 -50z"/>
<path d="M720 165 c0 -60 3 -75 15 -75 12 0 15 15 15 75 0 60 -3 75 -15 75
-12 0 -15 -15 -15 -75z"/>
<path d="M911 226 c-26 -31 -7 -55 64 -83 15 -5 8 -8 -27 -11 -53 -3 -67 -27
-22 -38 40 -10 88 8 92 34 5 31 -12 49 -54 56 -45 9 -34 26 17 26 57 0 46 24
-13 28 -30 2 -49 -2 -57 -12z"/>
<path d="M1068 223 c-38 -44 -28 -102 22 -123 22 -9 34 -9 51 1 17 9 24 9 27
0 2 -6 11 -11 19 -11 13 0 15 9 9 57 -4 31 -14 65 -23 75 -21 24 -85 24 -105
1z m80 -25 c20 -20 14 -58 -10 -67 -33 -12 -58 4 -58 38 0 15 3 31 7 34 11 11
48 8 61 -5z"/>
</g>
</svg>
